# xmcd
#
# Track frame offsets:
#	150
#	16300
#	32535
#	47111
#	62027
#	78833
#	95991
#	111090
#	127228
#	146166
#
# Disc length: 2140 seconds
#
# Revision: 0
# Processed by: cddbd v1.5.1PL2 Copyright (c) Steve Scherf et al.
# Submitted via: dBpowerAMP V4.0
#
DISCID=8b085a0a
DTITLE=Harold Melvin and The Blue Notes - Best Of, Harold Melvin and The Blue Notes
DYEAR=2004
DGENRE=R and B
TTITLE0=The Love I Lost
TTITLE1=If You Don't Know Me By Now
TTITLE2=Bad Luck
TTITLE3=Satisfaction Guaranteed
TTITLE4=Hope That We Can Be Together Soon
TTITLE5=Ain't No Stoppin' Us Now
TTITLE6=Wake Up Everybody
TTITLE7=For The Love Of The Money
TTITLE8=Could It Be I'm Falling In Love
TTITLE9=I Miss You
EXTD=
EXTT0=
EXTT1=
EXTT2=
EXTT3=
EXTT4=
EXTT5=
EXTT6=
EXTT7=
EXTT8=
EXTT9=
PLAYORDER=
